<svg xmlns="http://www.w3.org/2000/svg" width="1000" height="600" viewBox="0 0 1000 600">
  <g id="content-prototype" transform="translate(-410 -164)">
    <g id="Group_2905" data-name="Group 2905">
      <rect id="BG" width="1000" height="600" rx="20" transform="translate(410 164)" fill="#fff"/>
      <g id="Group_2901" data-name="Group 2901">
        <path id="Rectangle_1986" data-name="Rectangle 1986" d="M20,0H980a20,20,0,0,1,20,20V32a0,0,0,0,1,0,0H0a0,0,0,0,1,0,0V20A20,20,0,0,1,20,0Z" transform="translate(410 164)" fill="#d5d5d5"/>
        <circle id="Ellipse_323" data-name="Ellipse 323" cx="5" cy="5" r="5" transform="translate(430 175)" fill="#a2a2a2"/>
        <circle id="Ellipse_324" data-name="Ellipse 324" cx="5" cy="5" r="5" transform="translate(446 175)" fill="#a2a2a2"/>
        <circle id="Ellipse_325" data-name="Ellipse 325" cx="5" cy="5" r="5" transform="translate(462 175)" fill="#a2a2a2"/>
      </g>
    </g>
    <rect id="Rectangle_1971" data-name="Rectangle 1971" width="500" height="16" rx="8" transform="translate(460 416)" fill="#e6e6e6"/>
    <rect id="Rectangle_1970" data-name="Rectangle 1970" width="823" height="16" rx="8" transform="translate(460 458)" fill="#e6e6e6"/>
    <rect id="Rectangle_1969" data-name="Rectangle 1969" width="960" height="160" rx="20" transform="translate(430 216)" fill="#e6e6e6"/>
    <rect id="Rectangle_1966" data-name="Rectangle 1966" width="200" height="16" rx="8" transform="translate(810 303)" fill="#fff"/>
    <rect id="Rectangle_1967" data-name="Rectangle 1967" width="369" height="16" rx="8" transform="translate(726 273)" fill="#fff"/>
    <rect id="Rectangle_1983" data-name="Rectangle 1983" width="280" height="210" rx="20" transform="translate(460 514)" fill="#e6e6e6"/>
    <rect id="Rectangle_2002" data-name="Rectangle 2002" width="280" height="210" rx="20" transform="translate(770 514)" fill="#e6e6e6"/>
    <rect id="Rectangle_2003" data-name="Rectangle 2003" width="280" height="210" rx="20" transform="translate(1080 514)" fill="#e6e6e6"/>
  </g>
</svg>
